<svg xmlns="http://www.w3.org/2000/svg" width="16" height="16" viewBox="0 0 16 16">
    <g fill="none" fill-rule="evenodd">
        <g fill="#00755B">
            <g>
                <path d="M8 0C3.586 0 0 3.586 0 8s3.586 8 8 8 8-3.586 8-8-3.586-8-8-8zm0 .696c4.038 0 7.304 3.266 7.304 7.304S12.038 15.304 8 15.304.696 12.038.696 8 3.962.696 8 .696zM8 3.13c-.576 0-1.043.468-1.043 1.044 0 .576.467 1.043 1.043 1.043.576 0 1.043-.467 1.043-1.043 0-.576-.467-1.044-1.043-1.044zM6.609 6.61v.695h.695v4.522H6.61v.696H9.39v-.696h-.695V6.61H6.609z" transform="translate(-43) translate(43)"/>
            </g>
        </g>
    </g>
</svg>
