<svg xmlns="http://www.w3.org/2000/svg" width="24" height="24" viewBox="0 0 24 24">
    <g fill="none" fill-rule="evenodd">
        <g>
            <g>
                <path d="M0 0H24V24H0z" transform="translate(-87 -56) translate(87 56)"/>
                <path fill="#475F65" d="M0 3v19h24V3H0zm.96.95h22.08V16.3h-5.126l-3.36-2.375h-2.835l-1.961-1.94-2.337.463-2.066-3.069L.96 13.73V3.95zM18 6.8c-1.187 0-2.16.963-2.16 2.138 0 1.174.973 2.137 2.16 2.137 1.187 0 2.16-.963 2.16-2.137 0-1.175-.973-2.138-2.16-2.138zm0 .95c.668 0 1.2.527 1.2 1.188 0 .66-.532 1.187-1.2 1.187-.668 0-1.2-.527-1.2-1.188 0-.66.532-1.187 1.2-1.187zM5.205 10.87l1.774 2.632 2.464-.486 1.878 1.859h2.925l3.36 2.375h5.434v3.8H.96v-5.978l4.245-4.201z" transform="translate(-87 -56) translate(87 56)"/>
            </g>
        </g>
    </g>
</svg>
