<svg xmlns="http://www.w3.org/2000/svg" width="16" height="16" viewBox="0 0 16 16">
    <g fill="none" fill-rule="evenodd">
        <g fill="#00755B">
            <g>
                <path d="M8 1C3.952 1 .667 4.285.667 8.333c0 1.678.558 3.214 1.49 4.448l-1.726-.528c-.176-.054-.363.045-.417.222-.054.176.045.362.222.416l2.979.91.414-3.065c.014-.094-.013-.19-.075-.264-.062-.073-.152-.117-.248-.118-.171-.004-.318.123-.338.293l-.24 1.781c-.873-1.131-1.395-2.541-1.395-4.095 0-3.688 2.979-6.666 6.667-6.666V1zm.704.025l-.095.66.332.048.33.046.095-.66-.331-.048-.331-.046zm1.373.267l-.218.63.314.107.315.107.218-.63-.63-.214zm1.293.52l-.332.575.288.168.291.168.332-.58-.58-.331zm1.415 1.053l-.414 3.065c-.016.118.032.236.127.309.094.073.22.09.33.044.11-.045.188-.145.204-.263l.24-1.782c.873 1.132 1.395 2.542 1.395 4.095C14.667 12.022 11.688 15 8 15v.667c4.048 0 7.333-3.285 7.333-7.334 0-1.677-.558-3.213-1.49-4.448l1.726.528c.176.054.363-.045.417-.22.054-.177-.045-.364-.222-.418l-2.979-.91zM4.36 13.93l-.334.577.578.334.335-.574-.579-.337zm1.127.59l-.22.63.628.217.22-.629-.314-.108-.314-.11zm1.215.363l-.097.659.331.05.33.046.098-.658-.331-.05-.331-.047z" transform="translate(-174 -44) translate(174 44)"/>
            </g>
        </g>
    </g>
</svg>
