<svg xmlns="http://www.w3.org/2000/svg" width="180" height="24" viewBox="0 0 180 24">
    <g fill="#FFF" fill-rule="evenodd">
        <path d="M4.981 13.542L8.8 9.402c-1.746-.691-3.116-1.297-3.116-2.355 0-1.298 1.298-1.818 2.468-1.818 1.379 0 2.645.498 3.574 1.003l3.612-3.915C14.506 1.62 12.148 0 8.217 0 3.606 0 0 2.826 0 7.113c0 3.459 2.452 5.219 4.98 6.429M10.848 10.234L6.986 14.42c1.913.795 3.472 1.435 3.472 2.501 0 1.396-1.267 1.851-2.436 1.851-1.483 0-2.89-.619-3.917-1.229L.435 21.52c1.287.981 3.85 2.48 7.522 2.48 5.229 0 8.185-3.345 8.185-7.21 0-3.7-2.66-5.402-5.294-6.556M35.725 18.706c-2.978-.527-5.234-3.292-5.234-6.852 0-3.414 2.256-6.06 5.234-6.564V.048c-6.477.484-11.11 5.48-11.11 11.806 0 6.48 4.633 11.6 11.11 12.097v-5.245zM37.794.048V5.29c2.978.504 5.234 3.15 5.234 6.563 0 3.559-2.256 6.324-5.233 6.852v5.245c6.477-.498 11.11-5.618 11.11-12.097 0-6.324-4.633-11.32-11.11-11.806M96.151 12.999h5.683V.39h-5.683zM92.124 18.804c-2.436 0-4.028-1.3-4.028-3.735h-5.683c0 5.229 3.833 8.93 9.743 8.93 5.845 0 9.678-3.701 9.678-8.93h-5.683c0 2.436-1.59 3.735-4.027 3.735M82.413 12.999h5.683V.39h-5.683zM118.669 18.738V.39h-5.684V23.61h5.684zM126.723 11.464v-.065c1.754-1.007 2.695-2.987 2.695-4.937 0-3.993-3.247-6.072-7.89-6.072h-.79v4.871h.756c1.526 0 2.144.91 2.144 1.981 0 1.104-.618 2.144-2.047 2.144h-.853v4.546h1.373c1.656 0 2.436 1.072 2.436 2.371s-.812 2.436-2.468 2.436h-1.34v4.871h.788c4.611 0 8.833-1.851 8.833-6.918 0-2.045-.974-4.416-3.637-5.228M172.222 5.261h7.251V.39h-7.251zM172.222 23.61h7.251v-4.872h-7.251zM170.153 18.738V.39h-5.684v23.22h5.684zM172.221 14.355h5.684V9.484h-5.684zM58.852 5.261h5.684V.39h-5.684zM64.536 18.738V7.33h-5.684v16.282H74.02v-4.873zM140.499 5.261h5.684V.39h-5.684zM146.183 18.738V7.33H140.5v16.282h15.167v-4.873z"/>
    </g>
</svg>
