<svg width="1440" height="246" viewBox="0 0 1440 246" fill="none" xmlns="http://www.w3.org/2000/svg">
<path d="M645.918 1.11475L359.843 573.018" stroke="#121222" stroke-linecap="round" stroke-dasharray="0.01 3"/>
<path d="M424.054 1.11475L0.000488281 213.325" stroke="#121222" stroke-linecap="round" stroke-dasharray="0.01 3"/>
<path d="M350.098 1.11475L0.000488281 141.289" stroke="#121222" stroke-linecap="round" stroke-dasharray="0.01 3"/>
<path d="M276.15 1.11475L0 93.2577" stroke="#121222" stroke-linecap="round" stroke-dasharray="0.01 3"/>
<path d="M498.011 1.11475L0 333.362" stroke="#121222" stroke-linecap="round" stroke-dasharray="0.01 3"/>
<path d="M202.194 1.11475L0 58.9444" stroke="#121222" stroke-linecap="round" stroke-dasharray="0.01 3"/>
<path d="M54.2819 1.11475L0 13.1918" stroke="#121222" stroke-linecap="round" stroke-dasharray="0.01 3"/>
<path d="M128.238 1.11475L0 33.2071" stroke="#121222" stroke-linecap="round" stroke-dasharray="0.01 3"/>
<path d="M1237.55 1.11475L1440 59.0492" stroke="#121222" stroke-linecap="round" stroke-dasharray="0.01 3"/>
<path d="M719.872 1.11475L719.377 573.018" stroke="#121222" stroke-linecap="round" stroke-dasharray="0.01 3"/>
<path d="M1311.51 1.11475L1440 33.2829" stroke="#121222" stroke-linecap="round" stroke-dasharray="0.01 3"/>
<path d="M1385.46 1.11475L1440 13.252" stroke="#121222" stroke-linecap="round" stroke-dasharray="0.01 3"/>
<path d="M1163.6 1.11475L1440 93.3982" stroke="#121222" stroke-linecap="round" stroke-dasharray="0.01 3"/>
<path d="M1089.64 1.11475L1440 141.483" stroke="#121222" stroke-linecap="round" stroke-dasharray="0.01 3"/>
<path d="M941.736 1.11475L1440 333.915" stroke="#121222" stroke-linecap="round" stroke-dasharray="0.01 3"/>
<path d="M1015.69 1.11475L1440 213.638" stroke="#121222" stroke-linecap="round" stroke-dasharray="0.01 3"/>
<path d="M793.83 1.11475L1078.92 573.018" stroke="#121222" stroke-linecap="round" stroke-dasharray="0.01 3"/>
<path d="M571.96 1.11475L0.307129 573.018" stroke="#121222" stroke-linecap="round" stroke-dasharray="0.01 3"/>
<path d="M867.778 1.11475L1438.45 573.018" stroke="#121222" stroke-linecap="round" stroke-dasharray="0.01 3"/>
<path d="M1440 79.1638H0.00146484" stroke="#121222" stroke-linecap="round" stroke-dasharray="0.01 3"/>
<path d="M1440 26.8239H0.00146484" stroke="#121222" stroke-linecap="round" stroke-dasharray="0.01 3"/>
<path d="M1440 37.4951H0.00146484" stroke="#121222" stroke-linecap="round" stroke-dasharray="0.01 3"/>
<path d="M1440 49.5646H0.00146484" stroke="#121222" stroke-linecap="round" stroke-dasharray="0.01 3"/>
<path d="M1440 8.79756H0.00146484" stroke="#121222" stroke-linecap="round" stroke-dasharray="0.01 3"/>
<path d="M1440 17.3188H0.00146484" stroke="#121222" stroke-linecap="round" stroke-dasharray="0.01 3"/>
<path d="M1440 97.5744H0.00146484" stroke="#121222" stroke-linecap="round" stroke-dasharray="0.01 3"/>
<path d="M1440 63.3305H0.00146484" stroke="#121222" stroke-linecap="round" stroke-dasharray="0.01 3"/>
<path d="M1440 1.11494H0.000488281" stroke="#121222" stroke-linecap="round" stroke-dasharray="0.01 3"/>
<path d="M1440 119.246H0.00146484" stroke="#121222" stroke-linecap="round" stroke-dasharray="0.01 3"/>
<path d="M1440 145.137H0.00146484" stroke="#121222" stroke-linecap="round" stroke-dasharray="0.01 3"/>
<path d="M1440 176.608H0.00146484" stroke="#121222" stroke-linecap="round" stroke-dasharray="0.01 3"/>
<path d="M1440 215.677H0.00146484" stroke="#121222" stroke-linecap="round" stroke-dasharray="0.01 3"/>
</svg>
