<svg width="1440" height="434" viewBox="0 0 1440 434" fill="none" xmlns="http://www.w3.org/2000/svg">
<path d="M645.917 0.946045L359.842 486.054" stroke="#121222" stroke-linecap="square" stroke-dasharray="0.01 3"/>
<path d="M424.053 0.946045L0 180.95" stroke="#121222" stroke-linecap="square" stroke-dasharray="0.01 3"/>
<path d="M350.097 0.946045L0 119.847" stroke="#121222" stroke-linecap="square" stroke-dasharray="0.01 3"/>
<path d="M276.151 0.946289L0.000976562 79.1051" stroke="#121222" stroke-linecap="square" stroke-dasharray="0.01 3"/>
<path d="M498.012 0.946289L0.000976562 282.77" stroke="#121222" stroke-linecap="square" stroke-dasharray="0.01 3"/>
<path d="M202.195 0.946289L0.000976562 49.9994" stroke="#121222" stroke-linecap="square" stroke-dasharray="0.01 3"/>
<path d="M54.2828 0.946289L0.000976562 11.1904" stroke="#121222" stroke-linecap="square" stroke-dasharray="0.01 3"/>
<path d="M128.239 0.946289L0.000976562 28.1682" stroke="#121222" stroke-linecap="square" stroke-dasharray="0.01 3"/>
<path d="M1237.55 0.946045L1439.99 50.088" stroke="#121222" stroke-linecap="square" stroke-dasharray="0.01 3"/>
<path d="M719.874 0.946045L719.379 486.054" stroke="#121222" stroke-linecap="square" stroke-dasharray="0.01 3"/>
<path d="M1311.5 0.946045L1439.99 28.2322" stroke="#121222" stroke-linecap="square" stroke-dasharray="0.01 3"/>
<path d="M1385.45 0.946045L1439.99 11.2413" stroke="#121222" stroke-linecap="square" stroke-dasharray="0.01 3"/>
<path d="M1163.59 0.946045L1440 79.2241" stroke="#121222" stroke-linecap="square" stroke-dasharray="0.01 3"/>
<path d="M1089.64 0.946045L1440 120.011" stroke="#121222" stroke-linecap="square" stroke-dasharray="0.01 3"/>
<path d="M941.737 0.946045L1440 283.239" stroke="#121222" stroke-linecap="square" stroke-dasharray="0.01 3"/>
<path d="M1015.69 0.946045L1439.99 181.215" stroke="#121222" stroke-linecap="square" stroke-dasharray="0.01 3"/>
<path d="M793.831 0.946045L1078.92 486.054" stroke="#121222" stroke-linecap="square" stroke-dasharray="0.01 3"/>
<path d="M571.959 0.946045L0.306641 486.054" stroke="#121222" stroke-linecap="square" stroke-dasharray="0.01 3"/>
<path d="M867.775 0.946045L1438.45 486.054" stroke="#121222" stroke-linecap="square" stroke-dasharray="0.01 3"/>
<path d="M1439.99 67.1496H0" stroke="#121222" stroke-linecap="square" stroke-dasharray="0.01 3"/>
<path d="M1439.99 22.7529H0" stroke="#121222" stroke-linecap="square" stroke-dasharray="0.01 3"/>
<path d="M1439.99 31.8051H0" stroke="#121222" stroke-linecap="square" stroke-dasharray="0.01 3"/>
<path d="M1439.99 42.0427H0" stroke="#121222" stroke-linecap="square" stroke-dasharray="0.01 3"/>
<path d="M1439.99 7.46258H0" stroke="#121222" stroke-linecap="square" stroke-dasharray="0.01 3"/>
<path d="M1439.99 14.6899H0" stroke="#121222" stroke-linecap="square" stroke-dasharray="0.01 3"/>
<path d="M1439.99 357.634H0" stroke="#121222" stroke-linecap="square" stroke-dasharray="0.01 3"/>
<path d="M1439.99 82.7665H0" stroke="#121222" stroke-linecap="square" stroke-dasharray="0.01 3"/>
<path d="M1439.99 53.7192H0" stroke="#121222" stroke-linecap="square" stroke-dasharray="0.01 3"/>
<path d="M1439.99 0.945729H0" stroke="#121222" stroke-linecap="square" stroke-dasharray="0.01 3"/>
<path d="M1439.99 101.148H0" stroke="#121222" stroke-linecap="square" stroke-dasharray="0.01 3"/>
<path d="M1439.99 123.11H0" stroke="#121222" stroke-linecap="square" stroke-dasharray="0.01 3"/>
<path d="M1439.99 280.868H0" stroke="#121222" stroke-linecap="square" stroke-dasharray="0.01 3"/>
<path d="M1439.99 149.805H0" stroke="#121222" stroke-linecap="square" stroke-dasharray="0.01 3"/>
<path d="M1439.99 182.945H0" stroke="#121222" stroke-linecap="square" stroke-dasharray="0.01 3"/>
<path d="M1439.99 225.185H0" stroke="#121222" stroke-linecap="square" stroke-dasharray="0.01 3"/>
</svg>
