<svg width="1440" height="635" viewBox="0 0 1440 635" fill="none" xmlns="http://www.w3.org/2000/svg">
<g clip-path="url(#clip0)">
<rect width="1440" height="635" fill="#EDEDF5"/>
<g filter="url(#filter0_f)">
<path fill-rule="evenodd" clip-rule="evenodd" d="M45.017 -210.867C203.823 -343.446 338.125 -367.077 422.827 -363.556C541.115 -358.637 638.425 -296.624 689.804 -193.419C734.759 -103.119 733.19 -28.904 723.958 17.4564C714.718 63.859 707.892 78.0095 701.5 86C697.5 91 685 98.6851 666 100C648.162 101.234 633.201 95.0339 610.656 88.9147C578.556 80.2029 542.176 70.3281 497.763 73.5884C435.864 78.1308 372.603 107.045 309.734 159.531C199.996 251.145 146.986 378.871 95.7224 502.395C55.2763 599.852 13.4508 700.631 -44.7502 755.978C-50.0807 761.047 -55.4617 765.852 -60.7409 770.259C-95.1776 799.008 -128.005 813.407 -161.103 814.277C-230.307 816.099 -289.01 760.275 -322.158 661.119C-356.522 558.33 -337.377 398.423 -270.947 233.365C-200.415 58.1158 -88.2041 -99.6483 45.017 -210.867Z" fill="url(#paint0_linear)" fill-opacity="0.6"/>
</g>
<path d="M512.067 323.167V753.951" stroke="#EDEDF5" stroke-linecap="round" stroke-linejoin="round" stroke-dasharray="0.01 3"/>
<path d="M471.285 323.167L255.796 753.951" stroke="#EDEDF5" stroke-linecap="round" stroke-linejoin="round" stroke-dasharray="0.01 3"/>
<path d="M552.273 323.167L767.023 753.951" stroke="#EDEDF5" stroke-linecap="round" stroke-linejoin="round" stroke-dasharray="0.01 3"/>
<path d="M349.682 323.167L0.138672 497.926" stroke="#EDEDF5" stroke-linecap="round" stroke-linejoin="round" stroke-dasharray="0.01 3"/>
<path d="M390.288 323.167L0.138672 583.452" stroke="#EDEDF5" stroke-linecap="round" stroke-linejoin="round" stroke-dasharray="0.01 3"/>
<path d="M430.782 323.167L0.163574 753.975" stroke="#EDEDF5" stroke-linecap="round" stroke-linejoin="round" stroke-dasharray="0.01 3"/>
<path d="M0.138672 370.318L349.682 282.747" stroke="#EDEDF5" stroke-linecap="round" stroke-linejoin="round" stroke-dasharray="0.01 3"/>
<path d="M674.226 323.167L1024 497.907" stroke="#EDEDF5" stroke-linecap="round" stroke-linejoin="round" stroke-dasharray="0.01 3"/>
<path d="M633.27 323.167L1024 584.137" stroke="#EDEDF5" stroke-linecap="round" stroke-linejoin="round" stroke-dasharray="0.01 3"/>
<path d="M1024 370.422L674.226 282.722" stroke="#EDEDF5" stroke-linecap="round" stroke-linejoin="round" stroke-dasharray="0.01 3"/>
<path d="M592.774 323.167L1022.63 753.951" stroke="#EDEDF5" stroke-linecap="round" stroke-linejoin="round" stroke-dasharray="0.01 3"/>
<path d="M0.138672 242.39L349.682 242.166" stroke="#EDEDF5" stroke-linecap="round" stroke-linejoin="round" stroke-dasharray="0.01 3"/>
<path d="M0.138672 114.463L349.682 201.587" stroke="#EDEDF5" stroke-linecap="round" stroke-linejoin="round" stroke-dasharray="0.01 3"/>
<path d="M349.682 160.789L0.138672 -13.9751" stroke="#EDEDF5" stroke-linecap="round" stroke-linejoin="round" stroke-dasharray="0.01 3"/>
<path d="M389.925 160.789L0.138672 -98.5864" stroke="#EDEDF5" stroke-linecap="round" stroke-linejoin="round" stroke-dasharray="0.01 3"/>
<path d="M552.686 160.789L767.962 -270" stroke="#EDEDF5" stroke-linecap="round" stroke-linejoin="round" stroke-dasharray="0.01 3"/>
<path d="M430.618 160.789L0.138672 -268.763" stroke="#EDEDF5" stroke-linecap="round" stroke-linejoin="round" stroke-dasharray="0.01 3"/>
<path d="M471.309 160.789L255.254 -270" stroke="#EDEDF5" stroke-linecap="round" stroke-linejoin="round" stroke-dasharray="0.01 3"/>
<path d="M512.067 -270V160.789" stroke="#EDEDF5" stroke-linecap="round" stroke-linejoin="round" stroke-dasharray="0.01 3"/>
<path d="M634.065 160.789L1024 -98.9939" stroke="#EDEDF5" stroke-linecap="round" stroke-linejoin="round" stroke-dasharray="0.01 3"/>
<path d="M593.375 160.789L1024 -269.681" stroke="#EDEDF5" stroke-linecap="round" stroke-linejoin="round" stroke-dasharray="0.01 3"/>
<path d="M674.226 160.903L1024 -13.9766" stroke="#EDEDF5" stroke-linecap="round" stroke-linejoin="round" stroke-dasharray="0.01 3"/>
<path d="M1024 114.344L674.226 201.608" stroke="#EDEDF5" stroke-linecap="round" stroke-linejoin="round" stroke-dasharray="0.01 3"/>
<path d="M1024 242.38L674.226 242.161" stroke="#EDEDF5" stroke-linecap="round" stroke-linejoin="round" stroke-dasharray="0.01 3"/>
<path fill-rule="evenodd" clip-rule="evenodd" d="M53.1851 471.406H970.951V12.5488H53.1851V471.406Z" stroke="#EDEDF5" stroke-linecap="round" stroke-linejoin="round" stroke-dasharray="0.01 3"/>
<path fill-rule="evenodd" clip-rule="evenodd" d="M97.0186 449.491H927.088V34.46H97.0186V449.491Z" stroke="#EDEDF5" stroke-linecap="round" stroke-linejoin="round" stroke-dasharray="0.01 3"/>
<path fill-rule="evenodd" clip-rule="evenodd" d="M133.803 431.099H890.272V52.8545H133.803V431.099Z" stroke="#EDEDF5" stroke-linecap="round" stroke-linejoin="round" stroke-dasharray="0.01 3"/>
<path fill-rule="evenodd" clip-rule="evenodd" d="M164.599 415.705H859.451V68.2524H164.599V415.705Z" stroke="#EDEDF5" stroke-linecap="round" stroke-linejoin="round" stroke-dasharray="0.01 3"/>
<path fill-rule="evenodd" clip-rule="evenodd" d="M190.761 402.624H833.273V81.334H190.761V402.624Z" stroke="#EDEDF5" stroke-linecap="round" stroke-linejoin="round" stroke-dasharray="0.01 3"/>
<path fill-rule="evenodd" clip-rule="evenodd" d="M213.254 391.374H810.76V92.5757H213.254V391.374Z" stroke="#EDEDF5" stroke-linecap="round" stroke-linejoin="round" stroke-dasharray="0.01 3"/>
<path fill-rule="evenodd" clip-rule="evenodd" d="M232.808 381.6H791.195V102.354H232.808V381.6Z" stroke="#EDEDF5" stroke-linecap="round" stroke-linejoin="round" stroke-dasharray="0.01 3"/>
<path fill-rule="evenodd" clip-rule="evenodd" d="M249.961 373.024H774.031V110.928H249.961V373.024Z" stroke="#EDEDF5" stroke-linecap="round" stroke-linejoin="round" stroke-dasharray="0.01 3"/>
<path fill-rule="evenodd" clip-rule="evenodd" d="M265.127 365.446H758.853V118.512H265.127V365.446Z" stroke="#EDEDF5" stroke-linecap="round" stroke-linejoin="round" stroke-dasharray="0.01 3"/>
<path fill-rule="evenodd" clip-rule="evenodd" d="M278.629 358.691H745.334V125.265H278.629V358.691Z" stroke="#EDEDF5" stroke-linecap="round" stroke-linejoin="round" stroke-dasharray="0.01 3"/>
<path fill-rule="evenodd" clip-rule="evenodd" d="M290.738 352.637H733.218V131.318H290.738V352.637Z" stroke="#EDEDF5" stroke-linecap="round" stroke-linejoin="round" stroke-dasharray="0.01 3"/>
<path fill-rule="evenodd" clip-rule="evenodd" d="M301.648 347.18H722.296V136.771H301.648V347.18Z" stroke="#EDEDF5" stroke-linecap="round" stroke-linejoin="round" stroke-dasharray="0.01 3"/>
<path fill-rule="evenodd" clip-rule="evenodd" d="M311.537 342.238H712.402V141.719H311.537V342.238Z" stroke="#EDEDF5" stroke-linecap="round" stroke-linejoin="round" stroke-dasharray="0.01 3"/>
<path d="M1024 535.284H0.138672" stroke="#EDEDF5" stroke-linecap="round" stroke-linejoin="round" stroke-dasharray="0.01 3"/>
<path d="M1024 581.962H0.138672" stroke="#EDEDF5" stroke-linecap="round" stroke-linejoin="round" stroke-dasharray="0.01 3"/>
<path fill-rule="evenodd" clip-rule="evenodd" d="M349.685 323.167H674.228V160.789H349.685V323.167Z" stroke="#EDEDF5" stroke-linecap="round" stroke-linejoin="round" stroke-dasharray="0.01 3"/>
<path fill-rule="evenodd" clip-rule="evenodd" d="M343.261 326.375H680.653V157.579H343.261V326.375Z" stroke="#EDEDF5" stroke-linecap="round" stroke-linejoin="round" stroke-dasharray="0.01 3"/>
<path fill-rule="evenodd" clip-rule="evenodd" d="M336.309 329.851H687.611V154.104H336.309V329.851Z" stroke="#EDEDF5" stroke-linecap="round" stroke-linejoin="round" stroke-dasharray="0.01 3"/>
<path fill-rule="evenodd" clip-rule="evenodd" d="M328.762 333.626H695.165V150.328H328.762V333.626Z" stroke="#EDEDF5" stroke-linecap="round" stroke-linejoin="round" stroke-dasharray="0.01 3"/>
<path fill-rule="evenodd" clip-rule="evenodd" d="M320.537 337.739H703.4V146.218H320.537V337.739Z" stroke="#EDEDF5" stroke-linecap="round" stroke-linejoin="round" stroke-dasharray="0.01 3"/>
<path d="M1024 499.878H0.138672" stroke="#EDEDF5" stroke-linecap="round" stroke-linejoin="round" stroke-dasharray="0.01 3"/>
</g>
<defs>
<filter id="filter0_f" x="-472.269" y="-497.226" width="1334.81" height="1444.89" filterUnits="userSpaceOnUse" color-interpolation-filters="sRGB">
<feFlood flood-opacity="0" result="BackgroundImageFix"/>
<feBlend mode="normal" in="SourceGraphic" in2="BackgroundImageFix" result="shape"/>
<feGaussianBlur stdDeviation="66.6736" result="effect1_foregroundBlur"/>
</filter>
<linearGradient id="paint0_linear" x1="-188.492" y1="605.791" x2="-11.5502" y2="-251.839" gradientUnits="userSpaceOnUse">
<stop stop-color="#3024F2"/>
<stop offset="1" stop-color="#EA20DE"/>
</linearGradient>
<clipPath id="clip0">
<rect width="1440" height="635" fill="white"/>
</clipPath>
</defs>
</svg>
