<svg width="140" height="56" viewBox="0 0 140 56" fill="none" xmlns="http://www.w3.org/2000/svg">
<g filter="url(#filter0_f)">
<path fill-rule="evenodd" clip-rule="evenodd" d="M28.7266 48C21.4015 48 16.6421 44.0356 13.9393 40.7098C10.1648 36.0652 8 29.6474 8 23.102C8 17.375 9.25502 14.1088 10.3079 12.3771C11.3617 10.6438 12.3699 10.2109 12.5922 10.187C12.8168 10.187 12.9341 10.1917 13.2653 10.5288C13.8665 11.1407 14.5235 12.2961 15.1589 13.4134C16.0635 15.0043 17.0887 16.8074 18.5887 18.3225C20.6793 20.4341 23.2097 21.5048 26.1096 21.5048C31.1714 21.5048 34.9706 17.7652 38.6447 14.1486C41.5435 11.2952 44.5411 8.3445 47.3353 8.04171C47.5912 8.014 47.8445 8 48.088 8C49.6765 8 50.9797 8.58275 52.0723 9.78168C54.3568 12.2884 55.3639 16.985 54.8356 22.6671C54.2879 28.5574 51.0701 35.0054 46.2281 39.9156C41.0871 45.1289 34.8716 48 28.7266 48Z" fill="url(#paint0_linear)"/>
</g>
<path fill-rule="evenodd" clip-rule="evenodd" d="M36.1738 27.4405V21.2124H38.4566V35.2187H36.1738V32.7951L36.5402 31.1887H35.8921C35.3284 33.7251 33.553 35.5005 30.5094 35.5005C27.3248 35.5005 25.2676 33.6687 25.2676 29.7796V21.2124H27.5785V29.4697C27.5785 32.4005 28.7058 33.5278 31.1293 33.5278C34.0884 33.5278 36.1738 31.1887 36.1738 27.4405Z" fill="#FAFAFA"/>
<path fill-rule="evenodd" clip-rule="evenodd" d="M44.348 29.0186V35.2186H42.0371V21.2123H44.348V23.6359L43.9816 25.2423H44.6298C45.1935 22.7059 46.9688 20.9304 50.0125 20.9304C53.1689 20.9304 55.2261 22.7623 55.2261 26.6513V35.2186H52.9434V26.9614C52.9434 24.0304 51.7879 22.9032 49.3925 22.9032C46.4334 22.9032 44.348 25.2423 44.348 29.0186Z" fill="#FAFAFA"/>
<path fill-rule="evenodd" clip-rule="evenodd" d="M69.3867 27.4405V21.2124H71.6694V35.2187H69.3867V32.7951L69.7531 31.1887H69.1049C68.5413 33.7251 66.7658 35.5005 63.7223 35.5005C60.5377 35.5005 58.4805 33.6687 58.4805 29.7796V21.2124H60.7913V29.4697C60.7913 32.4005 61.9186 33.5278 64.3422 33.5278C67.3013 33.5278 69.3867 31.1887 69.3867 27.4405Z" fill="#FAFAFA"/>
<path fill-rule="evenodd" clip-rule="evenodd" d="M81.4275 35.5005C76.8902 35.5005 75.0303 33.3869 75.0303 30.0615H77.3412C77.3412 32.4851 78.7503 33.6123 81.4557 33.6123C83.6257 33.6123 84.6402 33.1051 84.6402 31.6678C84.6402 29.836 82.752 29.5261 80.4694 28.8215C77.8203 27.976 75.6784 27.1587 75.6784 24.6225C75.6784 22.396 77.5666 20.9307 80.7793 20.9307C85.1475 20.9307 86.472 23.3261 86.472 25.637H84.1612C84.1612 23.7488 83.0056 22.8188 80.7793 22.8188C79.2294 22.8188 77.9894 23.2697 77.9894 24.5379C77.9894 25.8906 78.9475 26.3133 81.202 27.0461C83.9639 27.9479 86.9511 28.5679 86.9511 31.5833C86.9511 33.6969 85.6266 35.5005 81.4275 35.5005Z" fill="#FAFAFA"/>
<path fill-rule="evenodd" clip-rule="evenodd" d="M100.934 27.493V21.2649H103.216V35.2712H100.934V32.8476L101.3 31.2412H100.652C100.088 33.7775 98.3127 35.553 95.2692 35.553C92.0847 35.553 90.0273 33.7212 90.0273 29.8321V21.2649H92.3382V29.5222C92.3382 32.453 93.4655 33.5803 95.8891 33.5803C98.8482 33.5803 100.934 31.2412 100.934 27.493Z" fill="#FAFAFA"/>
<path fill-rule="evenodd" clip-rule="evenodd" d="M111.72 33.5281C110.085 33.5281 109.071 32.6544 109.071 31.0479C109.071 29.6669 109.973 29.1314 111.748 28.9623L116.934 28.4269C116.934 31.3298 114.905 33.5281 111.72 33.5281ZM112.988 20.9309C109.014 20.9309 106.816 23.5229 106.816 26.4258H109.071C109.071 23.7765 110.959 22.8746 112.988 22.8746C115.412 22.8746 116.793 24.1429 116.934 26.7076L111.354 27.2431C108.084 27.5813 106.76 29.1033 106.76 31.3298C106.76 32.7953 107.38 35.5 111.438 35.5C114.82 35.5 116.263 33.4999 116.798 31.358H117.301L116.967 32.8235V35.2691H119.244V27.2713C119.244 23.5229 116.906 20.9309 112.988 20.9309Z" fill="#FAFAFA"/>
<path fill-rule="evenodd" clip-rule="evenodd" d="M133.561 35.5005C129.024 35.5005 127.164 33.3869 127.164 30.0615H129.475C129.475 32.4851 130.884 33.6123 133.589 33.6123C135.759 33.6123 136.774 33.1051 136.774 31.6678C136.774 29.836 134.886 29.5261 132.603 28.8215C129.954 27.976 127.812 27.1587 127.812 24.6225C127.812 22.396 129.7 20.9307 132.913 20.9307C137.281 20.9307 138.606 23.3261 138.606 25.637H136.295C136.295 23.7488 135.139 22.8188 132.913 22.8188C131.363 22.8188 130.123 23.2697 130.123 24.5379C130.123 25.8906 131.081 26.3133 133.336 27.0461C136.098 27.9479 139.085 28.5679 139.085 31.5833C139.085 33.6969 137.76 35.5005 133.561 35.5005Z" fill="#FAFAFA"/>
<path fill-rule="evenodd" clip-rule="evenodd" d="M122.396 35.2182H124.679V14.2119H122.396V35.2182Z" fill="#FAFAFA"/>
<defs>
<filter id="filter0_f" x="0.84164" y="0.84164" width="61.29" height="54.3167" filterUnits="userSpaceOnUse" color-interpolation-filters="sRGB">
<feFlood flood-opacity="0" result="BackgroundImageFix"/>
<feBlend mode="normal" in="SourceGraphic" in2="BackgroundImageFix" result="shape"/>
<feGaussianBlur stdDeviation="3.57918" result="effect1_foregroundBlur"/>
</filter>
<linearGradient id="paint0_linear" x1="49.5827" y1="20.1465" x2="21.1432" y2="37.9724" gradientUnits="userSpaceOnUse">
<stop stop-color="#3024F2"/>
<stop offset="1" stop-color="#EA20DE"/>
</linearGradient>
</defs>
</svg>
