<?xml version="1.0" encoding="utf-8"?>
<!-- Generator: Adobe Illustrator 25.2.1, SVG Export Plug-In . SVG Version: 6.00 Build 0)  -->
<svg version="1.1" id="Capa_1" xmlns="http://www.w3.org/2000/svg" xmlns:xlink="http://www.w3.org/1999/xlink" x="0px" y="0px"
	 viewBox="0 0 175.5 88" style="enable-background:new 0 0 175.5 88;" xml:space="preserve">
<style type="text/css">
	.st0{fill:#FFFFFF;}
</style>
<g>
	<path class="st0" d="M39.31,43.64v-6.19h2.27v13.93h-2.27v-2.41l0.36-1.6h-0.64c-0.56,2.52-2.33,4.29-5.35,4.29
		c-3.17,0-5.21-1.82-5.21-5.69v-8.52h2.3v8.21c0,2.91,1.12,4.04,3.53,4.04C37.24,49.7,39.31,47.37,39.31,43.64z"/>
	<path class="st0" d="M47.44,45.21v6.16h-2.3V37.45h2.3v2.41l-0.36,1.6h0.64c0.56-2.52,2.33-4.29,5.35-4.29
		c3.14,0,5.18,1.82,5.18,5.69v8.52h-2.27v-8.21c0-2.91-1.15-4.04-3.53-4.04C49.51,39.13,47.44,41.46,47.44,45.21z"/>
	<path class="st0" d="M72.34,43.64v-6.19h2.27v13.93h-2.27v-2.41l0.36-1.6h-0.64c-0.56,2.52-2.33,4.29-5.35,4.29
		c-3.17,0-5.21-1.82-5.21-5.69v-8.52h2.3v8.21c0,2.91,1.12,4.04,3.53,4.04C70.26,49.7,72.34,47.37,72.34,43.64z"/>
	<path class="st0" d="M84.31,51.66c-4.51,0-6.36-2.1-6.36-5.41h2.3c0,2.41,1.4,3.53,4.09,3.53c2.16,0,3.17-0.5,3.17-1.93
		c0-1.82-1.88-2.13-4.15-2.83c-2.63-0.84-4.76-1.65-4.76-4.18c0-2.21,1.88-3.67,5.07-3.67c4.34,0,5.66,2.38,5.66,4.68h-2.3
		c0-1.88-1.15-2.8-3.36-2.8c-1.54,0-2.77,0.45-2.77,1.71c0,1.35,0.95,1.77,3.19,2.49c2.75,0.9,5.72,1.51,5.72,4.51
		C89.8,49.86,88.48,51.66,84.31,51.66z"/>
	<path class="st0" d="M103.71,43.69V37.5h2.27v13.93h-2.27v-2.41l0.36-1.6h-0.64c-0.56,2.52-2.33,4.29-5.35,4.29
		c-3.17,0-5.21-1.82-5.21-5.69V37.5h2.3v8.21c0,2.91,1.12,4.04,3.53,4.04C101.63,49.75,103.71,47.42,103.71,43.69z"/>
	<path class="st0" d="M115.69,37.17c-3.95,0-6.14,2.58-6.14,5.46h2.24c0-2.63,1.88-3.53,3.9-3.53c2.41,0,3.78,1.26,3.92,3.81
		l-5.55,0.53c-3.25,0.34-4.57,1.85-4.57,4.06c0,1.46,0.62,4.15,4.65,4.15c3.36,0,4.8-1.99,5.33-4.12h0.5L119.65,49v2.43h2.26v-7.95
		C121.91,39.75,119.59,37.17,115.69,37.17z M114.43,49.7c-1.63,0-2.63-0.87-2.63-2.47c0-1.37,0.9-1.91,2.66-2.07l5.16-0.53
		C119.62,47.51,117.6,49.7,114.43,49.7z"/>
	<path class="st0" d="M136.15,51.66c-4.51,0-6.36-2.1-6.36-5.41h2.3c0,2.41,1.4,3.53,4.09,3.53c2.16,0,3.17-0.5,3.17-1.93
		c0-1.82-1.88-2.13-4.15-2.83c-2.63-0.84-4.76-1.65-4.76-4.18c0-2.21,1.88-3.67,5.07-3.67c4.34,0,5.66,2.38,5.66,4.68h-2.3
		c0-1.88-1.15-2.8-3.36-2.8c-1.54,0-2.77,0.45-2.77,1.71c0,1.35,0.95,1.77,3.19,2.49c2.75,0.9,5.72,1.51,5.72,4.51
		C141.64,49.86,140.32,51.66,136.15,51.66z"/>
	<rect x="125.05" y="30.49" class="st0" width="2.27" height="20.89"/>
</g>
</svg>
