<svg width="16" height="16" viewBox="0 0 16 16" fill="none" xmlns="http://www.w3.org/2000/svg">
<path d="M1.71837 13.5873L1.61361 14.0762H1.61361L1.71837 13.5873ZM14.2819 13.5873L14.3866 14.0762L14.2819 13.5873ZM14.2819 2.4128L14.3866 1.9239V1.9239L14.2819 2.4128ZM1.71837 2.4128L1.82314 2.90171L1.71837 2.4128ZM6.93345 5.86672L7.2108 5.45069C7.05737 5.34841 6.8601 5.33887 6.69752 5.42588C6.53494 5.51289 6.43345 5.68232 6.43345 5.86672H6.93345ZM6.93345 10.1334H6.43345C6.43345 10.3178 6.53494 10.4872 6.69752 10.5742C6.8601 10.6612 7.05737 10.6517 7.2108 10.5494L6.93345 10.1334ZM10.1334 8.00005L10.4108 8.41608C10.5499 8.32334 10.6334 8.16723 10.6334 8.00005C10.6334 7.83287 10.5499 7.67676 10.4108 7.58403L10.1334 8.00005ZM0.0334473 3.87854V12.1216H1.03345V3.87854H0.0334473ZM15.9668 12.1216V3.87854H14.9668V12.1216H15.9668ZM1.61361 14.0762C5.82349 14.9783 10.1767 14.9783 14.3866 14.0762L14.1771 13.0984C10.1053 13.9709 5.8949 13.9709 1.82314 13.0984L1.61361 14.0762ZM14.3866 1.9239C10.1767 1.02178 5.82349 1.02178 1.61361 1.9239L1.82314 2.90171C5.8949 2.02918 10.1053 2.02918 14.1771 2.90171L14.3866 1.9239ZM15.9668 3.87854C15.9668 2.93593 15.3083 2.12141 14.3866 1.9239L14.1771 2.90171C14.6377 3.00041 14.9668 3.40747 14.9668 3.87854H15.9668ZM14.9668 12.1216C14.9668 12.5926 14.6377 12.9997 14.1771 13.0984L14.3866 14.0762C15.3083 13.8787 15.9668 13.0642 15.9668 12.1216H14.9668ZM0.0334473 12.1216C0.0334473 13.0642 0.691923 13.8787 1.61361 14.0762L1.82314 13.0984C1.36252 12.9997 1.03345 12.5926 1.03345 12.1216H0.0334473ZM1.03345 3.87854C1.03345 3.40747 1.36252 3.00041 1.82314 2.90171L1.61361 1.9239C0.691923 2.12141 0.0334473 2.93593 0.0334473 3.87854H1.03345ZM6.43345 5.86672V10.1334H7.43345V5.86672H6.43345ZM7.2108 10.5494L10.4108 8.41608L9.8561 7.58403L6.6561 9.71736L7.2108 10.5494ZM10.4108 7.58403L7.2108 5.45069L6.6561 6.28274L9.8561 8.41608L10.4108 7.58403Z" fill="#DEDEED"/>
</svg>
