<svg width="16" height="16" viewBox="0 0 16 16" fill="none" xmlns="http://www.w3.org/2000/svg">
<path d="M15.4437 1.59998L15.9426 1.5669C15.9293 1.36633 15.7972 1.19322 15.6073 1.12748C15.4173 1.06173 15.2065 1.11613 15.072 1.26557L15.4437 1.59998ZM14.8787 4.75614C14.8787 4.48 14.6549 4.25614 14.3787 4.25614C14.1026 4.25614 13.8787 4.48 13.8787 4.75614H14.8787ZM7.98859 4.84381H7.48859V4.84381L7.98859 4.84381ZM7.98859 5.86664L8.48859 5.86664V5.86664L7.98859 5.86664ZM0.533447 13.3333V12.8333C0.31318 12.8333 0.118858 12.9775 0.0549529 13.1882C-0.00895232 13.399 0.072614 13.6268 0.255801 13.7491L0.533447 13.3333ZM1.59847 1.59998L2.06672 1.42465C1.99695 1.23832 1.82334 1.11108 1.62465 1.10066C1.42595 1.09024 1.23999 1.19863 1.15112 1.37664L1.59847 1.59998ZM5.85855 11.2L6.21238 11.5533C6.33474 11.4307 6.38497 11.2536 6.34516 11.085C6.30534 10.9165 6.18115 10.7805 6.01688 10.7257L5.85855 11.2ZM13.5639 2.63825L13.193 2.97359L13.3732 3.17283L13.6388 3.13261L13.5639 2.63825ZM14.9448 1.63305C14.9999 2.46438 14.9493 2.97344 14.8126 3.35891C14.6796 3.73393 14.4475 4.04151 14.0328 4.43896L14.7246 5.16099C15.1899 4.71512 15.5472 4.27916 15.7551 3.69324C15.9592 3.11776 16.0011 2.44848 15.9426 1.5669L14.9448 1.63305ZM14.8787 5.5333V4.75614H13.8787V5.5333H14.8787ZM7.48859 4.84381L7.48859 5.86664L8.48859 5.86664L8.48859 4.84381L7.48859 4.84381ZM7.48859 5.86664L7.48859 6.39997L8.48859 6.39998L8.48859 5.86664L7.48859 5.86664ZM11.2274 1.09998C9.16179 1.09998 7.48859 2.77688 7.48859 4.84381H8.48859C8.48859 3.3277 9.71553 2.09998 11.2274 2.09998V1.09998ZM13.8787 5.5333C13.8787 10.1548 10.1382 13.9 5.52572 13.9V14.9C10.692 14.9 14.8787 10.7056 14.8787 5.5333H13.8787ZM1.13021 1.7753C1.70687 3.31542 3.87403 6.36664 7.98859 6.36664V5.36664C4.43501 5.36664 2.55509 2.72897 2.06672 1.42465L1.13021 1.7753ZM1.15112 1.37664C0.0378265 3.60667 -0.13177 5.76525 0.674749 7.60108C1.47953 9.43296 3.21247 10.8437 5.70022 11.6742L6.01688 10.7257C3.71203 9.95624 2.24991 8.70032 1.59029 7.19887C0.932409 5.70136 1.02907 3.85995 2.04582 1.82331L1.15112 1.37664ZM5.50472 10.8467C4.85824 11.4942 2.9193 12.8333 0.533447 12.8333V13.8333C3.25969 13.8333 5.43886 12.328 6.21238 11.5533L5.50472 10.8467ZM13.9348 2.30291C13.2675 1.5649 12.3014 1.09998 11.2274 1.09998V2.09998C12.0067 2.09998 12.7071 2.43621 13.193 2.97359L13.9348 2.30291ZM13.6388 3.13261C14.4421 3.01095 15.2266 2.58889 15.8154 1.93438L15.072 1.26557C14.632 1.75468 14.0545 2.05824 13.489 2.14389L13.6388 3.13261ZM0.255801 13.7491C1.99633 14.9113 3.82128 14.9 5.52572 14.9V13.9C3.78823 13.9 2.26562 13.8887 0.811094 12.9175L0.255801 13.7491Z" fill="#DEDEED"/>
</svg>
