<svg width="1440" height="452" viewBox="0 0 1440 452" fill="none" xmlns="http://www.w3.org/2000/svg">
<g clip-path="url(#clip0)">
<rect width="1440" height="452" fill="#242442"/>
<g filter="url(#filter0_f)">
<path fill-rule="evenodd" clip-rule="evenodd" d="M1582.4 124.754C1716.98 145.758 1792.26 227.428 1831.71 292.244C1886.8 382.762 1906.87 499.09 1886.77 611.4C1869.19 709.666 1836.1 762.112 1811.44 788.806C1786.75 815.526 1766.9 820.063 1762.74 819.837C1758.62 819.193 1756.47 818.776 1751.43 812.041C1742.26 799.818 1733.73 778.11 1725.49 757.115C1713.75 727.224 1700.45 693.346 1677.54 663.048C1645.62 620.821 1602.41 595.194 1549.13 586.879C1456.13 572.365 1374.84 625.638 1296.23 677.16C1234.21 717.809 1170.08 759.843 1117.81 757.026C1113.02 756.768 1108.32 756.282 1103.85 755.584C1074.66 751.029 1052.51 737.293 1036.12 713.588C1001.84 664.025 997.752 580.551 1024.91 484.568C1053.05 385.069 1131.97 283.657 1236.01 213.289C1346.48 138.576 1469.49 107.134 1582.4 124.754Z" fill="url(#paint0_linear)" fill-opacity="0.8"/>
</g>
<g filter="url(#filter1_f)">
<path fill-rule="evenodd" clip-rule="evenodd" d="M27.5354 -299.371C121.459 -350.012 211.831 -335.444 271.107 -314.306C353.886 -284.785 429.153 -222.902 477.607 -144.526C520.003 -75.9496 528.09 -28.1626 527.41 -0.147968C526.729 27.8923 517.006 40.0462 514.334 41.8698C511.454 43.4227 509.914 44.1776 503.172 42.4297C490.933 39.2596 473.957 29.967 457.539 20.9795C434.163 8.18371 407.669 -6.31936 377.22 -14.0909C334.783 -24.9232 294.413 -20.2509 257.23 -0.202723C192.327 34.7913 171.298 105.835 150.961 174.543C134.916 228.751 118.323 284.806 84.7372 307.749C81.6611 309.85 78.5172 311.769 75.3949 313.452C55.028 324.434 34.0041 326.466 11.1194 319.663C-36.7293 305.439 -84.4111 256.165 -119.7 184.473C-156.282 110.154 -162.757 10.6988 -137.021 -81.572C-109.697 -179.539 -51.2559 -256.888 27.5354 -299.371Z" fill="url(#paint1_linear)" fill-opacity="0.8"/>
</g>
<g clip-path="url(#clip1)">
<g clip-path="url(#clip2)">
<path d="M719.996 332.551V897.969" stroke="#242442" stroke-linecap="round" stroke-linejoin="round" stroke-dasharray="0.01 3"/>
<path d="M662.64 332.551L359.568 897.969" stroke="#242442" stroke-linecap="round" stroke-linejoin="round" stroke-dasharray="0.01 3"/>
<path d="M776.545 332.551L1078.58 897.969" stroke="#242442" stroke-linecap="round" stroke-linejoin="round" stroke-dasharray="0.01 3"/>
<path d="M491.612 332.551L0 561.928" stroke="#242442" stroke-linecap="round" stroke-linejoin="round" stroke-dasharray="0.01 3"/>
<path d="M548.722 332.551L0 674.184" stroke="#242442" stroke-linecap="round" stroke-linejoin="round" stroke-dasharray="0.01 3"/>
<path d="M605.675 332.551L0.0356445 898" stroke="#242442" stroke-linecap="round" stroke-linejoin="round" stroke-dasharray="0.01 3"/>
<path d="M0 394.438L491.612 279.498" stroke="#242442" stroke-linecap="round" stroke-linejoin="round" stroke-dasharray="0.01 3"/>
<path d="M948.064 332.551L1440 561.903" stroke="#242442" stroke-linecap="round" stroke-linejoin="round" stroke-dasharray="0.01 3"/>
<path d="M890.46 332.551L1440 675.083" stroke="#242442" stroke-linecap="round" stroke-linejoin="round" stroke-dasharray="0.01 3"/>
<path d="M1440 394.574L948.064 279.465" stroke="#242442" stroke-linecap="round" stroke-linejoin="round" stroke-dasharray="0.01 3"/>
<path d="M833.508 332.551L1438.08 897.969" stroke="#242442" stroke-linecap="round" stroke-linejoin="round" stroke-dasharray="0.01 3"/>
<path d="M0 226.528L491.612 226.235" stroke="#242442" stroke-linecap="round" stroke-linejoin="round" stroke-dasharray="0.01 3"/>
<path d="M0 58.6204L491.612 172.974" stroke="#242442" stroke-linecap="round" stroke-linejoin="round" stroke-dasharray="0.01 3"/>
<path d="M491.612 119.424L0 -109.959" stroke="#242442" stroke-linecap="round" stroke-linejoin="round" stroke-dasharray="0.01 3"/>
<path d="M548.211 119.424L0 -221.014" stroke="#242442" stroke-linecap="round" stroke-linejoin="round" stroke-dasharray="0.01 3"/>
<path d="M777.124 119.424L1079.9 -446" stroke="#242442" stroke-linecap="round" stroke-linejoin="round" stroke-dasharray="0.01 3"/>
<path d="M605.444 119.424L0 -444.377" stroke="#242442" stroke-linecap="round" stroke-linejoin="round" stroke-dasharray="0.01 3"/>
<path d="M662.672 119.424L358.804 -446" stroke="#242442" stroke-linecap="round" stroke-linejoin="round" stroke-dasharray="0.01 3"/>
<path d="M719.996 -445.999V119.425" stroke="#242442" stroke-linecap="round" stroke-linejoin="round" stroke-dasharray="0.01 3"/>
<path d="M891.579 119.424L1440 -221.549" stroke="#242442" stroke-linecap="round" stroke-linejoin="round" stroke-dasharray="0.01 3"/>
<path d="M834.351 119.425L1440 -445.581" stroke="#242442" stroke-linecap="round" stroke-linejoin="round" stroke-dasharray="0.01 3"/>
<path d="M948.064 119.574L1440 -109.961" stroke="#242442" stroke-linecap="round" stroke-linejoin="round" stroke-dasharray="0.01 3"/>
<path d="M1440 58.4636L948.064 173" stroke="#242442" stroke-linecap="round" stroke-linejoin="round" stroke-dasharray="0.01 3"/>
<path d="M1440 226.515L948.064 226.228" stroke="#242442" stroke-linecap="round" stroke-linejoin="round" stroke-dasharray="0.01 3"/>
<path fill-rule="evenodd" clip-rule="evenodd" d="M74.6064 527.119H1365.39V-75.1455H74.6064V527.119Z" stroke="#242442" stroke-linecap="round" stroke-linejoin="round" stroke-dasharray="0.01 3"/>
<path fill-rule="evenodd" clip-rule="evenodd" d="M136.257 498.356H1303.7V-46.386H136.257V498.356Z" stroke="#242442" stroke-linecap="round" stroke-linejoin="round" stroke-dasharray="0.01 3"/>
<path fill-rule="evenodd" clip-rule="evenodd" d="M187.991 474.216H1251.92V-22.2427H187.991V474.216Z" stroke="#242442" stroke-linecap="round" stroke-linejoin="round" stroke-dasharray="0.01 3"/>
<path fill-rule="evenodd" clip-rule="evenodd" d="M231.305 454.01H1208.57V-2.03247H231.305V454.01Z" stroke="#242442" stroke-linecap="round" stroke-linejoin="round" stroke-dasharray="0.01 3"/>
<path fill-rule="evenodd" clip-rule="evenodd" d="M268.1 436.841H1171.75V15.1372H268.1V436.841Z" stroke="#242442" stroke-linecap="round" stroke-linejoin="round" stroke-dasharray="0.01 3"/>
<path fill-rule="evenodd" clip-rule="evenodd" d="M299.733 422.074H1140.09V29.8923H299.733V422.074Z" stroke="#242442" stroke-linecap="round" stroke-linejoin="round" stroke-dasharray="0.01 3"/>
<path fill-rule="evenodd" clip-rule="evenodd" d="M327.236 409.246H1112.57V42.7271H327.236V409.246Z" stroke="#242442" stroke-linecap="round" stroke-linejoin="round" stroke-dasharray="0.01 3"/>
<path fill-rule="evenodd" clip-rule="evenodd" d="M351.36 397.989H1088.43V53.9797H351.36V397.989Z" stroke="#242442" stroke-linecap="round" stroke-linejoin="round" stroke-dasharray="0.01 3"/>
<path fill-rule="evenodd" clip-rule="evenodd" d="M372.69 388.044H1067.09V63.9343H372.69V388.044Z" stroke="#242442" stroke-linecap="round" stroke-linejoin="round" stroke-dasharray="0.01 3"/>
<path fill-rule="evenodd" clip-rule="evenodd" d="M391.68 379.178H1048.07V72.7976H391.68V379.178Z" stroke="#242442" stroke-linecap="round" stroke-linejoin="round" stroke-dasharray="0.01 3"/>
<path fill-rule="evenodd" clip-rule="evenodd" d="M408.711 371.232H1031.03V80.7434H408.711V371.232Z" stroke="#242442" stroke-linecap="round" stroke-linejoin="round" stroke-dasharray="0.01 3"/>
<path fill-rule="evenodd" clip-rule="evenodd" d="M424.055 364.069H1015.67V87.9009H424.055V364.069Z" stroke="#242442" stroke-linecap="round" stroke-linejoin="round" stroke-dasharray="0.01 3"/>
<path fill-rule="evenodd" clip-rule="evenodd" d="M437.962 357.582H1001.76V94.394H437.962V357.582Z" stroke="#242442" stroke-linecap="round" stroke-linejoin="round" stroke-dasharray="0.01 3"/>
<path fill-rule="evenodd" clip-rule="evenodd" d="M491.614 332.551H948.065V119.424H491.614V332.551Z" stroke="#242442" stroke-linecap="round" stroke-linejoin="round" stroke-dasharray="0.01 3"/>
<path fill-rule="evenodd" clip-rule="evenodd" d="M482.582 336.762H957.103V115.212H482.582V336.762Z" stroke="#242442" stroke-linecap="round" stroke-linejoin="round" stroke-dasharray="0.01 3"/>
<path fill-rule="evenodd" clip-rule="evenodd" d="M472.803 341.324H966.889V110.65H472.803V341.324Z" stroke="#242442" stroke-linecap="round" stroke-linejoin="round" stroke-dasharray="0.01 3"/>
<path fill-rule="evenodd" clip-rule="evenodd" d="M462.189 346.279H977.513V105.695H462.189V346.279Z" stroke="#242442" stroke-linecap="round" stroke-linejoin="round" stroke-dasharray="0.01 3"/>
<path fill-rule="evenodd" clip-rule="evenodd" d="M450.622 351.677H989.096V100.3H450.622V351.677Z" stroke="#242442" stroke-linecap="round" stroke-linejoin="round" stroke-dasharray="0.01 3"/>
</g>
</g>
</g>
<defs>
<filter id="filter0_f" x="873.77" y="-13.3733" width="1153.97" height="966.565" filterUnits="userSpaceOnUse" color-interpolation-filters="sRGB">
<feFlood flood-opacity="0" result="BackgroundImageFix"/>
<feBlend mode="normal" in="SourceGraphic" in2="BackgroundImageFix" result="shape"/>
<feGaussianBlur stdDeviation="66.6736" result="effect1_foregroundBlur"/>
</filter>
<filter id="filter1_f" x="-285.927" y="-467.103" width="946.722" height="924.035" filterUnits="userSpaceOnUse" color-interpolation-filters="sRGB">
<feFlood flood-opacity="0" result="BackgroundImageFix"/>
<feBlend mode="normal" in="SourceGraphic" in2="BackgroundImageFix" result="shape"/>
<feGaussianBlur stdDeviation="66.6736" result="effect1_foregroundBlur"/>
</filter>
<linearGradient id="paint0_linear" x1="1113.68" y1="542.881" x2="1678.72" y2="291.119" gradientUnits="userSpaceOnUse">
<stop stop-color="#3024F2"/>
<stop offset="1" stop-color="#EA20DE"/>
</linearGradient>
<linearGradient id="paint1_linear" x1="-33.6882" y1="178.34" x2="175.104" y2="-243.551" gradientUnits="userSpaceOnUse">
<stop stop-color="#3024F2"/>
<stop offset="1" stop-color="#EA20DE"/>
</linearGradient>
<clipPath id="clip0">
<rect width="1440" height="452" fill="white"/>
</clipPath>
<clipPath id="clip1">
<rect width="1440" height="452" fill="white"/>
</clipPath>
<clipPath id="clip2">
<rect width="1440" height="1344" fill="white" transform="translate(0 -446)"/>
</clipPath>
</defs>
</svg>
