<svg width="1440" height="487" viewBox="0 0 1440 487" fill="none" xmlns="http://www.w3.org/2000/svg">
<g clip-path="url(#clip0)">
<path d="M645.916 53.9462L359.841 539.054" stroke="#121222" stroke-linecap="square" stroke-dasharray="0.01 3"/>
<path d="M424.053 53.9462L0 233.951" stroke="#121222" stroke-linecap="square" stroke-dasharray="0.01 3"/>
<path d="M350.097 53.9462L0 172.847" stroke="#121222" stroke-linecap="square" stroke-dasharray="0.01 3"/>
<path d="M276.15 53.9463L0.000488281 132.105" stroke="#121222" stroke-linecap="square" stroke-dasharray="0.01 3"/>
<path d="M498.011 53.9463L0.000488281 335.77" stroke="#121222" stroke-linecap="square" stroke-dasharray="0.01 3"/>
<path d="M202.194 53.9463L0.000488281 102.999" stroke="#121222" stroke-linecap="square" stroke-dasharray="0.01 3"/>
<path d="M54.2823 53.9463L0.000488281 64.1904" stroke="#121222" stroke-linecap="square" stroke-dasharray="0.01 3"/>
<path d="M128.238 53.9463L0.000488281 81.1682" stroke="#121222" stroke-linecap="square" stroke-dasharray="0.01 3"/>
<path d="M1237.55 53.9462L1439.99 103.088" stroke="#121222" stroke-linecap="square" stroke-dasharray="0.01 3"/>
<path d="M719.874 53.9462L719.379 539.054" stroke="#121222" stroke-linecap="square" stroke-dasharray="0.01 3"/>
<path d="M1311.5 53.9462L1439.99 81.2324" stroke="#121222" stroke-linecap="square" stroke-dasharray="0.01 3"/>
<path d="M1385.45 53.9462L1439.99 64.2414" stroke="#121222" stroke-linecap="square" stroke-dasharray="0.01 3"/>
<path d="M1163.59 53.9462L1440 132.224" stroke="#121222" stroke-linecap="square" stroke-dasharray="0.01 3"/>
<path d="M1089.64 53.9462L1440 173.012" stroke="#121222" stroke-linecap="square" stroke-dasharray="0.01 3"/>
<path d="M941.737 53.9462L1440 336.239" stroke="#121222" stroke-linecap="square" stroke-dasharray="0.01 3"/>
<path d="M1015.69 53.9462L1439.99 234.215" stroke="#121222" stroke-linecap="square" stroke-dasharray="0.01 3"/>
<path d="M793.831 53.9462L1078.92 539.054" stroke="#121222" stroke-linecap="square" stroke-dasharray="0.01 3"/>
<path d="M571.959 53.9462L0.307129 539.054" stroke="#121222" stroke-linecap="square" stroke-dasharray="0.01 3"/>
<path d="M867.776 53.9462L1438.45 539.054" stroke="#121222" stroke-linecap="square" stroke-dasharray="0.01 3"/>
<path d="M1439.99 120.15H0" stroke="#121222" stroke-linecap="square" stroke-dasharray="0.01 3"/>
<path d="M1439.99 75.7527H0" stroke="#121222" stroke-linecap="square" stroke-dasharray="0.01 3"/>
<path d="M1439.99 84.805H0" stroke="#121222" stroke-linecap="square" stroke-dasharray="0.01 3"/>
<path d="M1439.99 95.0425H0" stroke="#121222" stroke-linecap="square" stroke-dasharray="0.01 3"/>
<path d="M1439.99 60.4626H0" stroke="#121222" stroke-linecap="square" stroke-dasharray="0.01 3"/>
<path d="M1439.99 67.6899H0" stroke="#121222" stroke-linecap="square" stroke-dasharray="0.01 3"/>
<path d="M1439.99 410.634H0" stroke="#121222" stroke-linecap="square" stroke-dasharray="0.01 3"/>
<path d="M1439.99 135.767H0" stroke="#121222" stroke-linecap="square" stroke-dasharray="0.01 3"/>
<path d="M1439.99 106.719H0" stroke="#121222" stroke-linecap="square" stroke-dasharray="0.01 3"/>
<path d="M1439.99 53.9457H0" stroke="#121222" stroke-linecap="square" stroke-dasharray="0.01 3"/>
<path d="M1439.99 154.148H0" stroke="#121222" stroke-linecap="square" stroke-dasharray="0.01 3"/>
<path d="M1439.99 176.11H0" stroke="#121222" stroke-linecap="square" stroke-dasharray="0.01 3"/>
<path d="M1439.99 333.868H0" stroke="#121222" stroke-linecap="square" stroke-dasharray="0.01 3"/>
<path d="M1439.99 202.805H0" stroke="#121222" stroke-linecap="square" stroke-dasharray="0.01 3"/>
<path d="M1439.99 235.945H0" stroke="#121222" stroke-linecap="square" stroke-dasharray="0.01 3"/>
<path d="M1439.99 278.185H0" stroke="#121222" stroke-linecap="square" stroke-dasharray="0.01 3"/>
</g>
<defs>
<clipPath id="clip0">
<rect width="1440" height="487" fill="white"/>
</clipPath>
</defs>
</svg>
